<svg width="96" height="96" xmlns="http://www.w3.org/2000/svg" xmlns:xlink="http://www.w3.org/1999/xlink" xml:space="preserve" overflow="hidden"><g transform="translate(-76 -399)"><path d="M154.6 416.005 93.4 416.005C91.5304 416.025 90.0195 417.535 90 419.405L90 460.717C89.9845 462.579 91.4815 464.102 93.3438 464.117 93.3625 464.117 93.3813 464.117 93.4 464.117L130.8 464.117 144.4 478.017 144.4 464.217 154.6 464.217C156.47 464.198 157.98 462.687 158 460.817L158 419.506C158.024 417.602 156.504 416.037 154.6 416.005ZM134.032 448.228C132.371 452.316 128.401 454.993 123.988 455 123.988 455 124.025 452.507 121.272 449.158 118.519 445.809 119.784 440.972 119.784 440.972 116.56 444.05 115.662 448.842 117.552 452.879 115.097 451.54 111.488 445.921 113.906 440.042 115.009 438.01 116.531 436.234 118.37 434.833 120.751 432.86 124.918 428.135 122.2 423 128.189 425.605 130.831 433.158 127.222 437.958 125.931 439.542 126.169 441.873 127.753 443.164 129.337 444.455 131.667 444.217 132.958 442.633 133.676 441.753 133.949 440.592 133.7 439.484 135.446 441.791 135.334 445.735 134.032 448.228Z" fill="#215F9A"/></g></svg>