<svg width="96" height="96" xmlns="http://www.w3.org/2000/svg" xmlns:xlink="http://www.w3.org/1999/xlink" xml:space="preserve" overflow="hidden"><g transform="translate(-603 -411)"><path d="M681.6 428.005 620.4 428.005C618.53 428.025 617.019 429.535 617 431.405L617 472.717C616.984 474.579 618.482 476.102 620.344 476.117 620.362 476.117 620.381 476.117 620.4 476.117L657.8 476.117 671.4 490.017 671.4 476.217 681.6 476.217C683.47 476.198 684.98 474.687 685 472.817L685 431.506C685.024 429.602 683.504 428.037 681.6 428.005ZM661.032 460.228C659.371 464.316 655.401 466.993 650.988 467 650.988 467 651.025 464.507 648.272 461.158 645.519 457.809 646.784 452.972 646.784 452.972 643.56 456.05 642.662 460.842 644.552 464.879 642.097 463.54 638.488 457.921 640.906 452.042 642.009 450.01 643.531 448.234 645.37 446.833 647.751 444.86 651.918 440.135 649.2 435 655.189 437.605 657.831 445.158 654.222 449.958 652.931 451.542 653.169 453.873 654.753 455.164 656.337 456.455 658.667 456.217 659.958 454.633 660.676 453.753 660.949 452.592 660.7 451.484 662.446 453.791 662.334 457.735 661.032 460.228Z" fill="#FFFFFF"/></g></svg>