<svg width="96" height="96" xmlns="http://www.w3.org/2000/svg" xmlns:xlink="http://www.w3.org/1999/xlink" xml:space="preserve" overflow="hidden"><g transform="translate(-252 -404)"><path d="M330.6 421.005 269.4 421.005C267.53 421.025 266.02 422.535 266 424.405L266 465.717C265.984 467.579 267.482 469.102 269.344 469.117 269.362 469.117 269.381 469.117 269.4 469.117L306.8 469.117 320.4 483.017 320.4 469.217 330.6 469.217C332.47 469.198 333.98 467.687 334 465.817L334 424.506C334.024 422.602 332.504 421.037 330.6 421.005ZM310.032 453.228C308.371 457.316 304.401 459.993 299.988 460 299.988 460 300.025 457.507 297.272 454.158 294.519 450.809 295.784 445.972 295.784 445.972 292.56 449.05 291.662 453.842 293.552 457.879 291.097 456.54 287.488 450.921 289.906 445.042 291.009 443.01 292.531 441.234 294.37 439.833 296.751 437.86 300.918 433.135 298.2 428 304.189 430.605 306.831 438.158 303.222 442.958 301.931 444.542 302.169 446.873 303.753 448.164 305.337 449.455 307.667 449.217 308.958 447.633 309.676 446.753 309.949 445.592 309.7 444.484 311.446 446.791 311.334 450.735 310.032 453.228Z" fill="#D3220F"/></g></svg>