<svg width="96" height="96" xmlns="http://www.w3.org/2000/svg" xmlns:xlink="http://www.w3.org/1999/xlink" xml:space="preserve" overflow="hidden"><g transform="translate(-77 -191)"><path d="M125 235C120 235 116 231 116 226 116 221 120 217 125 217 130 217 134 221 134 226 134 231 130 235 125 235ZM125 205C118.1 205 111.6 208.4 107.7 214.2 103.8 219.9 103 227.2 105.5 233.7L115 254.7 123.2 271.9C123.5 272.6 124.2 273 125 273 125.8 273 126.5 272.6 126.8 271.9L135 254.7 144.5 233.7C147 227.2 146.2 219.9 142.3 214.2 138.4 208.4 131.9 205 125 205Z" fill="#215F9A"/></g></svg>