<svg width="96" height="96" xmlns="http://www.w3.org/2000/svg" xmlns:xlink="http://www.w3.org/1999/xlink" xml:space="preserve" overflow="hidden"><g transform="translate(-246 -195)"><path d="M294 239C289 239 285 235 285 230 285 225 289 221 294 221 299 221 303 225 303 230 303 235 299 239 294 239ZM294 209C287.1 209 280.6 212.4 276.7 218.2 272.8 223.9 272 231.2 274.5 237.7L284 258.7 292.2 275.9C292.5 276.6 293.2 277 294 277 294.8 277 295.5 276.6 295.8 275.9L304 258.7 313.5 237.7C316 231.2 315.2 223.9 311.3 218.2 307.4 212.4 300.9 209 294 209Z" fill="#D3220F"/></g></svg>