<svg width="96" height="96" xmlns="http://www.w3.org/2000/svg" xmlns:xlink="http://www.w3.org/1999/xlink" xml:space="preserve" overflow="hidden"><g transform="translate(-604 -226)"><path d="M652 270C647 270 643 266 643 261 643 256 647 252 652 252 657 252 661 256 661 261 661 266 657 270 652 270ZM652 240C645.1 240 638.6 243.4 634.7 249.2 630.8 254.9 630 262.2 632.5 268.7L642 289.7 650.2 306.9C650.5 307.6 651.2 308 652 308 652.8 308 653.5 307.6 653.8 306.9L662 289.7 671.5 268.7C674 262.2 673.2 254.9 669.3 249.2 665.4 243.4 658.9 240 652 240Z" fill="#FFFFFF"/></g></svg>