<svg width="96" height="96" xmlns="http://www.w3.org/2000/svg" xmlns:xlink="http://www.w3.org/1999/xlink" xml:space="preserve" overflow="hidden"><g transform="translate(-605 -130)"><path d="M690.5 205.6 678 193.1C676.3 191.4 674 190.8 671.8 191.2L667.4 186.8C671.3 181.8 673.6 175.4 673.6 168.6 673.6 152.1 660.1 138.6 643.6 138.6 627.1 138.6 613.6 152.1 613.6 168.6 613.6 185.1 627.1 198.6 643.6 198.6 650.4 198.6 656.7 196.3 661.8 192.4L666.2 196.8C665.8 199 666.4 201.3 668.1 203L680.6 215.5C682 216.9 683.8 217.6 685.6 217.6 687.4 217.6 689.2 216.9 690.6 215.5 693.2 212.7 693.2 208.3 690.5 205.6ZM643.5 192.5C630.3 192.5 619.5 181.7 619.5 168.5 619.5 155.3 630.3 144.5 643.5 144.5 656.7 144.5 667.5 155.3 667.5 168.5 667.5 181.7 656.7 192.5 643.5 192.5Z" fill="#FFFFFF"/></g></svg>