<svg width="96" height="96" xmlns="http://www.w3.org/2000/svg" xmlns:xlink="http://www.w3.org/1999/xlink" xml:space="preserve" overflow="hidden"><g transform="translate(-249 -89)"><path d="M334.5 164.6 322 152.1C320.3 150.4 318 149.8 315.8 150.2L311.4 145.8C315.3 140.8 317.6 134.4 317.6 127.6 317.6 111.1 304.1 97.6 287.6 97.6 271.1 97.6 257.6 111.1 257.6 127.6 257.6 144.1 271.1 157.6 287.6 157.6 294.4 157.6 300.7 155.3 305.8 151.4L310.2 155.8C309.8 158 310.4 160.3 312.1 162L324.6 174.5C326 175.9 327.8 176.6 329.6 176.6 331.4 176.6 333.2 175.9 334.6 174.5 337.2 171.7 337.2 167.3 334.5 164.6ZM287.5 151.5C274.3 151.5 263.5 140.7 263.5 127.5 263.5 114.3 274.3 103.5 287.5 103.5 300.7 103.5 311.5 114.3 311.5 127.5 311.5 140.7 300.7 151.5 287.5 151.5Z" fill="#D3220F"/></g></svg>