<svg width="96" height="96" xmlns="http://www.w3.org/2000/svg" xmlns:xlink="http://www.w3.org/1999/xlink" xml:space="preserve" overflow="hidden"><g transform="translate(-77 -84)"><path d="M162.5 159.6 150 147.1C148.3 145.4 146 144.8 143.8 145.2L139.4 140.8C143.3 135.8 145.6 129.4 145.6 122.6 145.6 106.1 132.1 92.6 115.6 92.6 99.1 92.6 85.6 106.1 85.6 122.6 85.6 139.1 99.1 152.6 115.6 152.6 122.4 152.6 128.7 150.3 133.8 146.4L138.2 150.8C137.8 153 138.4 155.3 140.1 157L152.6 169.5C154 170.9 155.8 171.6 157.6 171.6 159.4 171.6 161.2 170.9 162.6 169.5 165.2 166.7 165.2 162.3 162.5 159.6ZM115.5 146.5C102.3 146.5 91.5 135.7 91.5 122.5 91.5 109.3 102.3 98.5 115.5 98.5 128.7 98.5 139.5 109.3 139.5 122.5 139.5 135.7 128.7 146.5 115.5 146.5Z" fill="#215F9A"/></g></svg>